<svg width="108" height="108" viewBox="0 0 108 108" fill="none" xmlns="http://www.w3.org/2000/svg">
<path d="M87.165 37.2375V39.4875C87.165 62.145 69.975 88.11 38.52 88.11C29.2341 88.1301 20.1454 85.4316 12.375 80.3475C13.7245 80.5307 15.0857 80.6135 16.4475 80.595C24.1448 80.6162 31.6256 78.0486 37.6875 73.305C34.1115 73.2523 30.6431 72.0738 27.7753 69.9371C24.9074 67.8003 22.786 64.814 21.7125 61.4025C22.7777 61.6283 23.8637 61.7414 24.9525 61.74C26.473 61.7403 27.9866 61.536 29.4525 61.1325C25.5793 60.3604 22.0948 58.2663 19.5952 55.2085C17.0957 52.1507 15.7364 48.3194 15.75 44.37V44.145C18.1197 45.4687 20.7764 46.1947 23.49 46.26C19.8778 43.883 17.3097 40.2165 16.3102 36.0095C15.3107 31.8025 15.9554 27.3726 18.1125 23.625C22.4106 28.9114 27.7731 33.234 33.8514 36.3119C39.9296 39.3898 46.5876 41.1541 53.3925 41.49C53.0556 40.2129 52.8967 38.8955 52.92 37.575C52.7933 34.085 53.7453 30.6408 55.6463 27.7114C57.5474 24.7819 60.3051 22.5095 63.544 21.2036C66.7829 19.8977 70.3456 19.6218 73.747 20.4134C77.1483 21.205 80.2231 23.0257 82.5525 25.6275C86.3815 24.8548 90.0545 23.4479 93.42 21.465C92.1437 25.4956 89.4286 28.9154 85.7925 31.0725C89.1891 30.6045 92.5006 29.6497 95.625 28.2375C93.3607 31.7152 90.4961 34.7626 87.165 37.2375V37.2375Z" stroke="black" stroke-linecap="round" stroke-linejoin="round"/>
</svg>
