<svg width="108" height="123" viewBox="0 0 108 123" fill="none" xmlns="http://www.w3.org/2000/svg">
<g clip-path="url(#clip0_101_5)">
<path d="M54 48.6859C51.457 48.6868 48.9714 49.4392 46.8574 50.8478C44.7434 52.2564 43.096 54.258 42.1235 56.5996C41.151 58.9411 40.897 61.5175 41.3937 64.0028C41.8904 66.4882 43.1155 68.771 44.914 70.5626C46.7125 72.3542 49.0038 73.5742 51.498 74.0682C53.9922 74.5623 56.5774 74.3082 58.9268 73.3382C61.2761 72.3682 63.2841 70.7258 64.6968 68.6186C66.1095 66.5115 66.8636 64.0342 66.8636 61.5C66.861 58.1014 65.5048 54.8429 63.0928 52.4402C60.6808 50.0375 57.4104 48.6872 54 48.6859V48.6859ZM84.064 38.8363C83.4094 37.1831 82.4209 35.6816 81.1598 34.4249C79.8987 33.1682 78.392 32.1831 76.733 31.5308C71.6705 29.5392 59.617 29.9861 54 29.9861C48.383 29.9861 36.3415 29.5224 31.2646 31.5308C29.6056 32.1831 28.0989 33.1682 26.8378 34.4249C25.5767 35.6816 24.5882 37.1831 23.9336 38.8363C21.9375 43.8812 22.3835 55.9049 22.3835 61.4976C22.3835 67.0903 21.9375 79.0996 23.9432 84.1613C24.5978 85.8145 25.5863 87.316 26.8474 88.5727C28.1085 89.8294 29.6152 90.8145 31.2742 91.4668C36.3367 93.4584 48.3903 93.0115 54.0096 93.0115C59.629 93.0115 71.6657 93.4752 76.7427 91.4668C78.4016 90.8145 79.9084 89.8294 81.1695 88.5727C82.4305 87.316 83.419 85.8145 84.0737 84.1613C86.0866 79.1164 85.6237 67.0927 85.6237 61.5C85.6237 55.9073 86.0866 43.9004 84.0737 38.8387L84.064 38.8363ZM54 81.1992C50.0903 81.1992 46.2684 80.0439 43.0176 77.8793C39.7668 75.7147 37.2331 72.6381 35.7369 69.0386C34.2407 65.439 33.8492 61.4781 34.612 57.6569C35.3747 53.8356 37.2574 50.3255 40.022 47.5705C42.7866 44.8156 46.3089 42.9394 50.1435 42.1793C53.9781 41.4192 57.9527 41.8093 61.5648 43.3003C65.1769 44.7913 68.2643 47.3162 70.4364 50.5557C72.6085 53.7952 73.7679 57.6039 73.7679 61.5C73.771 64.0878 73.2619 66.6509 72.2696 69.0423C71.2773 71.4337 69.8213 73.6066 67.9851 75.4365C66.1488 77.2664 63.9684 78.7173 61.5686 79.7061C59.1688 80.695 56.5968 81.2024 54 81.1992V81.1992ZM74.5827 45.5725C73.67 45.5729 72.7777 45.3037 72.0186 44.7987C71.2595 44.2938 70.6677 43.5758 70.3181 42.7357C69.9685 41.8955 69.8768 40.9709 70.0545 40.0788C70.2323 39.1867 70.6715 38.3672 71.3167 37.7239C71.9619 37.0806 72.7841 36.6424 73.6792 36.4648C74.5743 36.2872 75.5022 36.3781 76.3455 36.7261C77.1887 37.074 77.9095 37.6634 78.4166 38.4196C78.9237 39.1758 79.1944 40.0649 79.1944 40.9744C79.1969 41.5784 79.0798 42.1769 78.8497 42.7357C78.6196 43.2944 78.281 43.8024 77.8534 44.2305C77.4259 44.6586 76.9177 44.9983 76.3581 45.2303C75.7985 45.4622 75.1984 45.5818 74.5923 45.5821L74.5827 45.5725ZM96.4286 7.6875H11.5714C8.5025 7.6875 5.55926 8.9024 3.38919 11.0649C1.21913 13.2275 0 16.1605 0 19.2188L0 103.781C0 106.84 1.21913 109.773 3.38919 111.935C5.55926 114.098 8.5025 115.312 11.5714 115.312H96.4286C99.4975 115.312 102.441 114.098 104.611 111.935C106.781 109.773 108 106.84 108 103.781V19.2188C108 16.1605 106.781 13.2275 104.611 11.0649C102.441 8.9024 99.4975 7.6875 96.4286 7.6875V7.6875ZM92.3014 77.3555C91.9904 83.5127 90.5802 88.9684 86.0697 93.4512C81.5593 97.9339 76.0894 99.3681 69.9179 99.6612C63.5513 100.019 44.4632 100.019 38.0965 99.6612C31.9179 99.3513 26.4624 97.9436 21.9447 93.4512C17.4271 88.9588 16.0071 83.5007 15.713 77.3555C15.3538 71.0085 15.3538 51.9843 15.713 45.6445C16.024 39.4873 17.4174 34.0316 21.9447 29.5488C26.4721 25.0661 31.942 23.6487 38.0965 23.3556C44.4632 22.9976 63.5513 22.9976 69.9179 23.3556C76.0966 23.6655 81.5689 25.0733 86.0697 29.5656C90.5705 34.058 92.0073 39.5162 92.3014 45.6734C92.6606 51.9963 92.6606 71.0037 92.3014 77.3555Z" fill="black"/>
</g>
<defs>
<clipPath id="clip0_101_5">
<rect width="108" height="123" fill="white"/>
</clipPath>
</defs>
</svg>
