<svg width="108" height="108" viewBox="0 0 108 108" fill="none" xmlns="http://www.w3.org/2000/svg">
<path d="M103.68 0H4.32C1.9305 0 0 1.9305 0 4.32V103.68C0 106.07 1.9305 108 4.32 108H103.68C106.07 108 108 106.07 108 103.68V4.32C108 1.9305 106.07 0 103.68 0ZM99.36 99.36H74.5065V66.177H88.5465L90.6525 49.8825H74.5065V39.474C74.5065 34.749 75.816 31.536 82.5795 31.536H91.206V16.956C89.7075 16.7535 84.591 16.308 78.624 16.308C66.177 16.308 57.6585 23.9085 57.6585 37.854V49.869H43.5915V66.1635H57.672V99.36H8.64V8.64H99.36V99.36Z" fill="black"/>
</svg>
